<?xml version="1.0" encoding="UTF-8" standalone="no"?>
<!-- Created with Inkscape (http://www.inkscape.org/) -->

<svg
   version="1.1"
   id="svg39"
   width="32"
   height="32"
   viewBox="0 0 32 32"
   sodipodi:docname="favicon.svg"
   inkscape:version="1.1.2 (0a00cf5339, 2022-02-04)"
   xmlns:inkscape="http://www.inkscape.org/namespaces/inkscape"
   xmlns:sodipodi="http://sodipodi.sourceforge.net/DTD/sodipodi-0.dtd"
   xmlns="http://www.w3.org/2000/svg"
   xmlns:svg="http://www.w3.org/2000/svg">
  <defs
     id="defs43" />
  <sodipodi:namedview
     id="namedview41"
     pagecolor="#ffffff"
     bordercolor="#666666"
     borderopacity="1.0"
     inkscape:pageshadow="2"
     inkscape:pageopacity="0.0"
     inkscape:pagecheckerboard="true"
     showgrid="false"
     inkscape:zoom="0.77929685"
     inkscape:cx="306.04512"
     inkscape:cy="259.20803"
     inkscape:window-width="1366"
     inkscape:window-height="740"
     inkscape:window-x="0"
     inkscape:window-y="0"
     inkscape:window-maximized="1"
     inkscape:current-layer="g45"
     fit-margin-top="0"
     fit-margin-left="0"
     fit-margin-right="0"
     fit-margin-bottom="0"
     height="32px" />
  <g
     inkscape:groupmode="layer"
     inkscape:label="Image"
     id="g45"
     transform="translate(2.0003621,-66.858108)">
    <path
       style="fill:#010101;stroke:none;stroke-width:1.33333"
       d="M 18.117598,72.069383 C -11.070112,79.034183 2.1175977,168.54885 2.1175977,192.69285 v 313.33334 c 0,25.21867 -11.80437,92.24662 4.55864,111.86002 9.1072303,10.916 29.4379003,6.8066 42.1080303,6.8066 H 164.78427 515.45095 c 45.52,0 112.75867,12.7094 156.00001,-0.8706 14.176,-4.452 13.33333,-19.1267 13.33333,-31.1294 V 503.35953 187.35952 c 0,-24.20534 11.64,-92.274137 -6.04267,-109.956807 -10.18,-10.17893 -31.52133,-6.0432 -44.624,-6.0432 h -116 -341.33335 c -48.78267,0 -111.328932,-10.586 -158.666672,0.70987 M 338.11761,106.55191 c 26.01867,-5.96986 35.26,32.7748 9.33334,38.75827 -23.90134,5.516 -33.77867,-33.14933 -9.33334,-38.75827 m -233.33334,50.59961 c 9.984,-1.54134 20.65067,5.468 22.36733,15.54133 5.56934,32.684 0.30147,70.80533 0.29934,104 -8e-4,12.50934 -2.33627,25.51067 -17.33334,27.508 -10.472662,1.39467 -20.402802,-6.736 -22.227332,-16.84133 -5.93427,-32.864 -0.60173,-71.90267 -0.43827,-105.33334 0.0557,-11.408 4.56867,-22.904 17.332272,-24.87466 m 237.33334,22.72933 c 24.60934,-1.86 28.99067,36.972 4,39.33733 -26.62133,2.52 -30.404,-37.34 -4,-39.33733 m -2.66667,74.66667 c 24.42934,-5.196 33.60801,32.89733 9.33334,38.768 -25.96934,6.28 -35.41734,-33.21867 -9.33334,-38.768 m -129.33333,31.93733 c 26.448,-5.41333 34.39066,34.124 8,38.88267 -24.148,4.35467 -32.076,-33.95467 -8,-38.88267 m 128,42.73334 c 26.092,-5.98667 35.20534,32.904 9.33334,38.76 -24.10934,5.456 -33.73467,-33.16134 -9.33334,-38.76 m 237.33334,63.91467 c 37.56267,-6.58667 24,92.936 24,115.56 0,12.164 -0.81866,28.012 -16,30.38133 -37.948,5.92401 -24,-91.91333 -24,-115.71467 0,-12.85866 0.0787,-27.43466 16,-30.22666 m -233.33334,9.41466 c 25.576,-1.93333 28.27334,38.35467 2.66667,40.29067 -25.56,1.932 -28.44134,-38.34133 -2.66667,-40.29067 m -1.33333,74.60401 c 24.42267,-3.732 31.44933,35.388 6.66667,39.256 -26.47467,4.132 -32.85201,-35.25334 -6.66667,-39.256 m -1.33334,74.648 c 25.48534,-4.47733 33.17467,33.68268 8.00001,39.03868 -25.23201,5.3666 -33.53201,-34.55335 -8.00001,-39.03868 z"
       id="path489" />
  </g>
</svg>
