<svg aria-roledescription="er" role="graphics-document document" viewBox="0 0 373.0326232910156 293" style="max-width: 373.033px; background-color: white;" xmlns:xlink="http://www.w3.org/1999/xlink" xmlns="http://www.w3.org/2000/svg" width="100%" id="mermaid-0"><style>#mermaid-0{font-family:"trebuchet ms",verdana,arial,sans-serif;font-size:16px;fill:#000000;}#mermaid-0 .error-icon{fill:#552222;}#mermaid-0 .error-text{fill:#552222;stroke:#552222;}#mermaid-0 .edge-thickness-normal{stroke-width:2px;}#mermaid-0 .edge-thickness-thick{stroke-width:3.5px;}#mermaid-0 .edge-pattern-solid{stroke-dasharray:0;}#mermaid-0 .edge-pattern-dashed{stroke-dasharray:3;}#mermaid-0 .edge-pattern-dotted{stroke-dasharray:2;}#mermaid-0 .marker{fill:#000000;stroke:#000000;}#mermaid-0 .marker.cross{stroke:#000000;}#mermaid-0 svg{font-family:"trebuchet ms",verdana,arial,sans-serif;font-size:16px;}#mermaid-0 .entityBox{fill:#cde498;stroke:#13540c;}#mermaid-0 .attributeBoxOdd{fill:#ffffff;stroke:#13540c;}#mermaid-0 .attributeBoxEven{fill:#f2f2f2;stroke:#13540c;}#mermaid-0 .relationshipLabelBox{fill:hsl(78.1578947368, 58.4615384615%, 84.5098039216%);opacity:0.7;background-color:hsl(78.1578947368, 58.4615384615%, 84.5098039216%);}#mermaid-0 .relationshipLabelBox rect{opacity:0.5;}#mermaid-0 .relationshipLine{stroke:#000000;}#mermaid-0 .entityTitleText{text-anchor:middle;font-size:18px;fill:#000000;}#mermaid-0 :root{--mermaid-font-family:"trebuchet ms",verdana,arial,sans-serif;}</style><g/><defs><marker orient="auto" markerHeight="18" markerWidth="18" refY="9" refX="0" id="ONLY_ONE_START"><path d="M9,0 L9,18 M15,0 L15,18" fill="none" stroke="gray"/></marker></defs><defs><marker orient="auto" markerHeight="18" markerWidth="18" refY="9" refX="18" id="ONLY_ONE_END"><path d="M3,0 L3,18 M9,0 L9,18" fill="none" stroke="gray"/></marker></defs><defs><marker orient="auto" markerHeight="18" markerWidth="30" refY="9" refX="0" id="ZERO_OR_ONE_START"><circle r="6" cy="9" cx="21" fill="white" stroke="gray"/><path d="M9,0 L9,18" fill="none" stroke="gray"/></marker></defs><defs><marker orient="auto" markerHeight="18" markerWidth="30" refY="9" refX="30" id="ZERO_OR_ONE_END"><circle r="6" cy="9" cx="9" fill="white" stroke="gray"/><path d="M21,0 L21,18" fill="none" stroke="gray"/></marker></defs><defs><marker orient="auto" markerHeight="36" markerWidth="45" refY="18" refX="18" id="ONE_OR_MORE_START"><path d="M0,18 Q 18,0 36,18 Q 18,36 0,18 M42,9 L42,27" fill="none" stroke="gray"/></marker></defs><defs><marker orient="auto" markerHeight="36" markerWidth="45" refY="18" refX="27" id="ONE_OR_MORE_END"><path d="M3,9 L3,27 M9,18 Q27,0 45,18 Q27,36 9,18" fill="none" stroke="gray"/></marker></defs><defs><marker orient="auto" markerHeight="36" markerWidth="57" refY="18" refX="18" id="ZERO_OR_MORE_START"><circle r="6" cy="18" cx="48" fill="white" stroke="gray"/><path d="M0,18 Q18,0 36,18 Q18,36 0,18" fill="none" stroke="gray"/></marker></defs><defs><marker orient="auto" markerHeight="36" markerWidth="57" refY="18" refX="39" id="ZERO_OR_MORE_END"><circle r="6" cy="18" cx="9" fill="white" stroke="gray"/><path d="M21,18 Q39,0 57,18 Q39,36 21,18" fill="none" stroke="gray"/></marker></defs><path style="stroke: gray; fill: none;" marker-start="url(#ZERO_OR_MORE_START)" marker-end="url(#ONLY_ONE_END)" d="M286.84124755859375,107L286.84124755859375,115.33333333333333C286.84124755859375,123.66666666666667,286.84124755859375,140.33333333333334,286.84124755859375,157C286.84124755859375,173.66666666666666,286.84124755859375,190.33333333333334,286.84124755859375,198.66666666666666L286.84124755859375,207" class="er relationshipLine"/><g transform="translate(20,30.5 )" id="entity-User-818c511a-4a32-5484-ba70-875d765a9175"><rect height="66" width="114.67654418945312" y="0" x="0" class="er entityBox"/><text style="dominant-baseline: middle; text-anchor: middle; font-size: 12px;" transform="translate(57.33827209472656,12)" y="0" x="0" id="text-entity-User-818c511a-4a32-5484-ba70-875d765a9175" class="er entityLabel">User</text><rect height="21" width="36.947052001953125" y="24" x="0" class="er attributeBoxOdd"/><text style="dominant-baseline: middle; font-size: 10.2px;" transform="translate(5,34.5)" y="0" x="0" id="text-entity-User-818c511a-4a32-5484-ba70-875d765a9175-attr-1-type" class="er entityLabel">String</text><rect height="21" width="53.93450927734375" y="24" x="36.947052001953125" class="er attributeBoxOdd"/><text style="dominant-baseline: middle; font-size: 10.2px;" transform="translate(41.947052001953125,34.5)" y="0" x="0" id="text-entity-User-818c511a-4a32-5484-ba70-875d765a9175-attr-1-name" class="er entityLabel">name</text><rect height="21" width="23.79498291015625" y="24" x="90.88156127929688" class="er attributeBoxOdd"/><text style="dominant-baseline: middle; font-size: 10.2px;" transform="translate(95.88156127929688,34.5)" y="0" x="0" id="text-entity-User-818c511a-4a32-5484-ba70-875d765a9175-attr-1-key" class="er entityLabel">PK</text><rect height="21" width="36.947052001953125" y="45" x="0" class="er attributeBoxEven"/><text style="dominant-baseline: middle; font-size: 10.2px;" transform="translate(5,55.5)" y="0" x="0" id="text-entity-User-818c511a-4a32-5484-ba70-875d765a9175-attr-2-type" class="er entityLabel">String</text><rect height="21" width="53.93450927734375" y="45" x="36.947052001953125" class="er attributeBoxEven"/><text style="dominant-baseline: middle; font-size: 10.2px;" transform="translate(41.947052001953125,55.5)" y="0" x="0" id="text-entity-User-818c511a-4a32-5484-ba70-875d765a9175-attr-2-name" class="er entityLabel">password</text><rect height="21" width="23.79498291015625" y="45" x="90.88156127929688" class="er attributeBoxEven"/><text style="dominant-baseline: middle; font-size: 10.2px;" transform="translate(95.88156127929688,55.5)" y="0" x="0" id="text-entity-User-818c511a-4a32-5484-ba70-875d765a9175-attr-2-key" class="er entityLabel"/></g><g transform="translate(220.64987182617188,207 )" id="entity-Discussion-79ac17fe-56c9-50ee-a0c5-8eb6166b4064"><rect height="66" width="132.38275146484375" y="0" x="0" class="er entityBox"/><text style="dominant-baseline: middle; text-anchor: middle; font-size: 12px;" transform="translate(66.19137573242188,12)" y="0" x="0" id="text-entity-Discussion-79ac17fe-56c9-50ee-a0c5-8eb6166b4064" class="er entityLabel">Discussion</text><rect height="21" width="36.947052001953125" y="24" x="0" class="er attributeBoxOdd"/><text style="dominant-baseline: middle; font-size: 10.2px;" transform="translate(5,34.5)" y="0" x="0" id="text-entity-Discussion-79ac17fe-56c9-50ee-a0c5-8eb6166b4064-attr-1-type" class="er entityLabel">Int</text><rect height="21" width="26.1875" y="24" x="36.947052001953125" class="er attributeBoxOdd"/><text style="dominant-baseline: middle; font-size: 10.2px;" transform="translate(41.947052001953125,34.5)" y="0" x="0" id="text-entity-Discussion-79ac17fe-56c9-50ee-a0c5-8eb6166b4064-attr-1-name" class="er entityLabel">id</text><rect height="21" width="23.79498291015625" y="24" x="63.134552001953125" class="er attributeBoxOdd"/><text style="dominant-baseline: middle; font-size: 10.2px;" transform="translate(68.13455200195312,34.5)" y="0" x="0" id="text-entity-Discussion-79ac17fe-56c9-50ee-a0c5-8eb6166b4064-attr-1-key" class="er entityLabel">PK</text><rect height="21" width="45.453216552734375" y="24" x="86.92953491210938" class="er attributeBoxOdd"/><text style="dominant-baseline: middle; font-size: 10.2px;" transform="translate(91.92953491210938,34.5)" y="0" x="0" id="text-entity-Discussion-79ac17fe-56c9-50ee-a0c5-8eb6166b4064-attr-1-comment" class="er entityLabel"/><rect height="21" width="36.947052001953125" y="45" x="0" class="er attributeBoxEven"/><text style="dominant-baseline: middle; font-size: 10.2px;" transform="translate(5,55.5)" y="0" x="0" id="text-entity-Discussion-79ac17fe-56c9-50ee-a0c5-8eb6166b4064-attr-2-type" class="er entityLabel">String</text><rect height="21" width="26.1875" y="45" x="36.947052001953125" class="er attributeBoxEven"/><text style="dominant-baseline: middle; font-size: 10.2px;" transform="translate(41.947052001953125,55.5)" y="0" x="0" id="text-entity-Discussion-79ac17fe-56c9-50ee-a0c5-8eb6166b4064-attr-2-name" class="er entityLabel">title</text><rect height="21" width="23.79498291015625" y="45" x="63.134552001953125" class="er attributeBoxEven"/><text style="dominant-baseline: middle; font-size: 10.2px;" transform="translate(68.13455200195312,55.5)" y="0" x="0" id="text-entity-Discussion-79ac17fe-56c9-50ee-a0c5-8eb6166b4064-attr-2-key" class="er entityLabel"/><rect height="21" width="45.453216552734375" y="45" x="86.92953491210938" class="er attributeBoxEven"/><text style="dominant-baseline: middle; font-size: 10.2px;" transform="translate(91.92953491210938,55.5)" y="0" x="0" id="text-entity-Discussion-79ac17fe-56c9-50ee-a0c5-8eb6166b4064-attr-2-comment" class="er entityLabel">nullable</text></g><g transform="translate(234.67654418945312,20 )" id="entity-Message-a3849f5f-6e30-5367-9632-ff041b746560"><rect height="87" width="104.32940673828125" y="0" x="0" class="er entityBox"/><text style="dominant-baseline: middle; text-anchor: middle; font-size: 12px;" transform="translate(52.164703369140625,12)" y="0" x="0" id="text-entity-Message-a3849f5f-6e30-5367-9632-ff041b746560" class="er entityLabel">Message</text><rect height="21" width="36.947052001953125" y="24" x="0" class="er attributeBoxOdd"/><text style="dominant-baseline: middle; font-size: 10.2px;" transform="translate(5,34.5)" y="0" x="0" id="text-entity-Message-a3849f5f-6e30-5367-9632-ff041b746560-attr-1-type" class="er entityLabel">Int</text><rect height="21" width="43.587371826171875" y="24" x="36.947052001953125" class="er attributeBoxOdd"/><text style="dominant-baseline: middle; font-size: 10.2px;" transform="translate(41.947052001953125,34.5)" y="0" x="0" id="text-entity-Message-a3849f5f-6e30-5367-9632-ff041b746560-attr-1-name" class="er entityLabel">id</text><rect height="21" width="23.79498291015625" y="24" x="80.534423828125" class="er attributeBoxOdd"/><text style="dominant-baseline: middle; font-size: 10.2px;" transform="translate(85.534423828125,34.5)" y="0" x="0" id="text-entity-Message-a3849f5f-6e30-5367-9632-ff041b746560-attr-1-key" class="er entityLabel">PK</text><rect height="21" width="36.947052001953125" y="45" x="0" class="er attributeBoxEven"/><text style="dominant-baseline: middle; font-size: 10.2px;" transform="translate(5,55.5)" y="0" x="0" id="text-entity-Message-a3849f5f-6e30-5367-9632-ff041b746560-attr-2-type" class="er entityLabel">String</text><rect height="21" width="43.587371826171875" y="45" x="36.947052001953125" class="er attributeBoxEven"/><text style="dominant-baseline: middle; font-size: 10.2px;" transform="translate(41.947052001953125,55.5)" y="0" x="0" id="text-entity-Message-a3849f5f-6e30-5367-9632-ff041b746560-attr-2-name" class="er entityLabel">from</text><rect height="21" width="23.79498291015625" y="45" x="80.534423828125" class="er attributeBoxEven"/><text style="dominant-baseline: middle; font-size: 10.2px;" transform="translate(85.534423828125,55.5)" y="0" x="0" id="text-entity-Message-a3849f5f-6e30-5367-9632-ff041b746560-attr-2-key" class="er entityLabel"/><rect height="21" width="36.947052001953125" y="66" x="0" class="er attributeBoxOdd"/><text style="dominant-baseline: middle; font-size: 10.2px;" transform="translate(5,76.5)" y="0" x="0" id="text-entity-Message-a3849f5f-6e30-5367-9632-ff041b746560-attr-3-type" class="er entityLabel">String</text><rect height="21" width="43.587371826171875" y="66" x="36.947052001953125" class="er attributeBoxOdd"/><text style="dominant-baseline: middle; font-size: 10.2px;" transform="translate(41.947052001953125,76.5)" y="0" x="0" id="text-entity-Message-a3849f5f-6e30-5367-9632-ff041b746560-attr-3-name" class="er entityLabel">content</text><rect height="21" width="23.79498291015625" y="66" x="80.534423828125" class="er attributeBoxOdd"/><text style="dominant-baseline: middle; font-size: 10.2px;" transform="translate(85.534423828125,76.5)" y="0" x="0" id="text-entity-Message-a3849f5f-6e30-5367-9632-ff041b746560-attr-3-key" class="er entityLabel"/></g><rect height="14" width="56.03125" y="150" x="258.82562255859375" class="er relationshipLabelBox"/><text style="text-anchor: middle; dominant-baseline: middle; font-size: 12px;" y="157" x="286.84124755859375" id="rel1" class="er relationshipLabel">discussion</text></svg>